0
SECTION
2
HEADER
9
$INSUNITS
70
4
9
$ACADVER
1
AC1014
9
$HANDSEED
5
FFFF
0
ENDSEC
0
SECTION
2
TABLES
0
TABLE
2
VPORT
5
8
100
AcDbSymbolTable
0
ENDTAB
0
TABLE
2
LTYPE
5
5
100
AcDbSymbolTable
0
LTYPE
5
14
100
AcDbSymbolTableRecord
100
AcDbLinetypeTableRecord
2
BYBLOCK
70
0
0
LTYPE
5
15
100
AcDbSymbolTableRecord
100
AcDbLinetypeTableRecord
2
BYLAYER
70
0
0
ENDTAB
0
TABLE
2
LAYER
5
2
100
AcDbSymbolTable
70
2
0
LAYER
5
50
100
AcDbSymbolTableRecord
100
AcDbLayerTableRecord
2
0
70
0
6
CONTINUOUS
0
ENDTAB
0
TABLE
2
STYLE
5
3
100
AcDbSymbolTable
70
1
0
STYLE
5
11
100
AcDbSymbolTableRecord
100
AcDbTextStyleTableRecord
2
STANDARD
70
0
0
ENDTAB
0
TABLE
2
VIEW
5
6
100
AcDbSymbolTable
70
0
0
ENDTAB
0
TABLE
2
UCS
5
7
100
AcDbSymbolTable
70
0
0
ENDTAB
0
TABLE
2
APPID
5
9
100
AcDbSymbolTable
70
2
0
APPID
5
12
100
AcDbSymbolTableRecord
100
AcDbRegAppTableRecord
2
ACAD
70
0
0
ENDTAB
0
TABLE
2
DIMSTYLE
5
A
100
AcDbSymbolTable
70
1
0
ENDTAB
0
TABLE
2
BLOCK_RECORD
5
1
100
AcDbSymbolTable
70
1
0
BLOCK_RECORD
5
1F
100
AcDbSymbolTableRecord
100
AcDbBlockTableRecord
2
*MODEL_SPACE
0
BLOCK_RECORD
5
1B
100
AcDbSymbolTableRecord
100
AcDbBlockTableRecord
2
*PAPER_SPACE
0
ENDTAB
0
ENDSEC
0
SECTION
2
BLOCKS
0
BLOCK
5
20
100
AcDbEntity
100
AcDbBlockBegin
2
*MODEL_SPACE
0
ENDBLK
5
21
100
AcDbEntity
100
AcDbBlockEnd
0
BLOCK
5
1C
100
AcDbEntity
100
AcDbBlockBegin
2
*PAPER_SPACE
0
ENDBLK
5
1D
100
AcDbEntity
100
AcDbBlockEnd
0
ENDSEC
0
SECTION
2
ENTITIES
0
LINE
5
100
100
AcDbEntity
8
0
100
AcDbLine
10
-79.112099391876498
20
5.8877611856137868
30
0
11
-79.112099391876498
21
25.887761185613787
31
0
0
LINE
5
101
100
AcDbEntity
8
0
100
AcDbLine
10
130.88790060812352
20
7.3877611856137868
30
0
11
130.88790060812352
21
12.887761185613787
31
0
0
LINE
5
102
100
AcDbEntity
8
0
100
AcDbLine
10
136.38790060812352
20
13.387761185613787
30
0
11
136.38790060812352
21
12.887761185613787
31
0
0
LINE
5
103
100
AcDbEntity
8
0
100
AcDbLine
10
136.38790060812352
20
12.887761185613787
30
0
11
135.88790060812352
21
12.887761185613787
31
0
0
LINE
5
104
100
AcDbEntity
8
0
100
AcDbLine
10
-24.112099391876498
20
12.887761185613787
30
0
11
-24.112099391876498
21
7.3877611856137868
31
0
0
LINE
5
105
100
AcDbEntity
8
0
100
AcDbLine
10
-19.112099391876498
20
7.3877611856137868
30
0
11
-19.112099391876498
21
12.887761185613787
31
0
0
LINE
5
106
100
AcDbEntity
8
0
100
AcDbLine
10
129.38790060812349
20
5.8877611856137904
30
0
11
-17.612099391876512
21
5.8877611856137877
31
0
0
LINE
5
107
100
AcDbEntity
8
0
100
AcDbLine
10
-24.612099391876505
20
13.387761185613787
30
0
11
-34.112099391876498
21
13.387761185613787
31
0
0
LINE
5
108
100
AcDbEntity
8
0
100
AcDbLine
10
-34.112099391876498
20
13.387761185613787
30
0
11
-34.112099391876498
21
20.38776118561379
31
0
0
LINE
5
109
100
AcDbEntity
8
0
100
AcDbLine
10
-34.112099391876498
20
20.38776118561379
30
0
11
-24.112099391876498
21
20.38776118561379
31
0
0
LINE
5
110
100
AcDbEntity
8
0
100
AcDbLine
10
130.38790060812349
20
12.887761185613787
30
0
11
130.88790060812352
21
12.887761185613787
31
0
0
LINE
5
111
100
AcDbEntity
8
0
100
AcDbLine
10
130.38790060812349
20
13.387761185613787
30
0
11
130.38790060812349
21
12.887761185613787
31
0
0
LINE
5
112
100
AcDbEntity
8
0
100
AcDbLine
10
-18.612099391876491
20
13.387761185613787
30
0
11
-18.612099391876491
21
12.887761185613787
31
0
0
LINE
5
113
100
AcDbEntity
8
0
100
AcDbLine
10
-18.612099391876491
20
12.887761185613787
30
0
11
-19.112099391876498
21
12.887761185613787
31
0
0
LINE
5
114
100
AcDbEntity
8
0
100
AcDbLine
10
-24.612099391876505
20
12.887761185613787
30
0
11
-24.112099391876498
21
12.887761185613787
31
0
0
LINE
5
115
100
AcDbEntity
8
0
100
AcDbLine
10
-24.612099391876505
20
13.387761185613787
30
0
11
-24.612099391876505
21
12.887761185613787
31
0
0
LINE
5
116
100
AcDbEntity
8
0
100
AcDbLine
10
145.88790060812352
20
13.387761185613787
30
0
11
145.88790060812352
21
20.38776118561379
31
0
0
LINE
5
117
100
AcDbEntity
8
0
100
AcDbLine
10
145.88790060812352
20
20.38776118561379
30
0
11
135.88790060812352
21
20.38776118561379
31
0
0
ARC
5
118
100
AcDbEntity
8
0
100
AcDbCircle
10
55.887900608123502
20
15.887761185613787
30
0
40
8.9999999999999947
100
AcDbArc
50
30.000000000000043
51
149.99999999999997
0
ARC
5
119
100
AcDbEntity
8
0
100
AcDbCircle
10
55.887900608123502
20
15.887761185613787
30
0
40
9
100
AcDbArc
50
196.12762021316072
51
343.87237978683925
0
LINE
5
120
100
AcDbEntity
8
0
100
AcDbLine
10
101.19431246676719
20
20.38776118561379
30
0
11
101.19431246676719
21
13.387761185613787
31
0
0
LINE
5
121
100
AcDbEntity
8
0
100
AcDbLine
10
135.88790060812352
20
20.38776118561379
30
0
11
101.19431246676719
21
20.38776118561379
31
0
0
LINE
5
122
100
AcDbEntity
8
0
100
AcDbLine
10
147.78333698378449
20
15.887761185613787
30
0
11
181.41058043403058
21
15.887761185613787
31
0
0
LINE
5
123
100
AcDbEntity
8
0
100
AcDbLine
10
183.31058043403058
20
13.987761185613788
30
0
11
183.31058043403058
21
13.387761185613787
31
0
0
LINE
5
124
100
AcDbEntity
8
0
100
AcDbLine
10
178.91058043403058
20
13.387761185613787
30
0
11
147.78333698378449
21
13.387761185613787
31
0
0
LINE
5
125
100
AcDbEntity
8
0
100
AcDbLine
10
145.88790060812352
20
13.387761185613787
30
0
11
145.88790060812352
21
15.887761185613787
31
0
0
LINE
5
126
100
AcDbEntity
8
0
100
AcDbLine
10
183.31058043403058
20
5.8877611856137868
30
0
11
183.31058043403058
21
13.387761185613787
31
0
0
LINE
5
127
100
AcDbEntity
8
0
100
AcDbLine
10
147.78333698378449
20
15.887761185613787
30
0
11
147.78333698378449
21
13.387761185613787
31
0
0
LINE
5
128
100
AcDbEntity
8
0
100
AcDbLine
10
180.81058043403058
20
5.8877611856137868
30
0
11
137.38790060812352
21
5.8877611856137904
31
0
0
LINE
5
129
100
AcDbEntity
8
0
100
AcDbLine
10
-36.007535767537476
20
15.887761185613787
30
0
11
-69.63477921778356
21
15.887761185613787
31
0
0
LINE
5
130
100
AcDbEntity
8
0
100
AcDbLine
10
-67.13477921778356
20
13.387761185613787
30
0
11
-36.007535767537476
21
13.387761185613787
31
0
0
LINE
5
131
100
AcDbEntity
8
0
100
AcDbLine
10
-71.53477921778358
20
13.987761185613788
30
0
11
-71.53477921778358
21
13.387761185613787
31
0
0
LINE
5
132
100
AcDbEntity
8
0
100
AcDbLine
10
-69.03477921778358
20
11.487761185613788
30
0
11
-69.03477921778358
21
5.8877611856137868
31
0
0
LINE
5
133
100
AcDbEntity
8
0
100
AcDbLine
10
-71.53477921778358
20
13.387761185613787
30
0
11
-71.53477921778358
21
5.8877611856137868
31
0
0
LINE
5
134
100
AcDbEntity
8
0
100
AcDbLine
10
-25.612099391876498
20
5.887761185613785
30
0
11
-69.03477921778358
21
5.8877611856137868
31
0
0
LINE
5
135
100
AcDbEntity
8
0
100
AcDbLine
10
-71.53477921778358
20
5.8877611856137868
30
0
11
-79.112099391876498
21
5.8877611856137868
31
0
0
LWPOLYLINE
5
136
100
AcDbEntity
8
0
100
AcDbPolyline
90
4
70
1
43
0.0
10
190.66932403560543
20
-9.6692464639938436
10
-79.330675964394587
20
-9.6692464639938436
10
-79.330675964394572
20
-29.669246463993844
10
190.66932403560543
20
-29.669246463993844
0
LINE
5
137
100
AcDbEntity
8
0
100
AcDbLine
10
55.669324035605413
20
-9.6692464639938436
30
0
11
55.669324035605428
21
-29.669246463993844
31
0
0
CIRCLE
5
138
100
AcDbEntity
8
0
100
AcDbCircle
10
55.66932403560542
20
-19.669246463993844
30
0
40
9.0000000000000036
0
LINE
5
139
100
AcDbEntity
8
0
100
AcDbLine
10
-36.007535767537476
20
15.887761185613787
30
0
11
-36.007535767537476
21
13.387761185613787
31
0
0
ARC
5
140
100
AcDbEntity
8
0
100
AcDbCircle
10
55.887900608123502
20
15.887761185613787
30
0
40
9
100
AcDbArc
50
196.12762021316072
51
343.87237978683925
0
LINE
5
141
100
AcDbEntity
8
0
100
AcDbLine
10
48.093671974063561
20
20.38776118561379
30
0
11
-24.112099391876498
21
20.38776118561379
31
0
0
LINE
5
142
100
AcDbEntity
8
0
100
AcDbLine
10
-34.112099391876498
20
20.38776118561379
30
0
11
-24.112099391876498
21
20.38776118561379
31
0
0
LINE
5
143
100
AcDbEntity
8
0
100
AcDbLine
10
-71.53477921778358
20
13.987761185613788
30
0
11
-71.53477921778358
21
13.387761185613787
31
0
0
LINE
5
144
100
AcDbEntity
8
0
100
AcDbLine
10
-18.612099391876491
20
13.387761185613787
30
0
11
47.242092375228211
21
13.387761185613787
31
0
0
LINE
5
145
100
AcDbEntity
8
0
100
AcDbLine
10
-24.612099391876505
20
12.887761185613787
30
0
11
-24.112099391876498
21
12.887761185613787
31
0
0
LINE
5
146
100
AcDbEntity
8
0
100
AcDbLine
10
-24.612099391876505
20
13.387761185613787
30
0
11
-24.612099391876505
21
12.887761185613787
31
0
0
ARC
5
147
100
AcDbEntity
8
0
100
AcDbCircle
10
55.887900608123502
20
15.887761185613787
30
0
40
8.9999999999999947
100
AcDbArc
50
30.000000000000043
51
149.99999999999997
0
LINE
5
148
100
AcDbEntity
8
0
100
AcDbLine
10
-34.112099391876498
20
13.387761185613787
30
0
11
-34.112099391876498
21
20.38776118561379
31
0
0
LINE
5
149
100
AcDbEntity
8
0
100
AcDbLine
10
190.88790060812352
20
5.8877611856137868
30
0
11
183.31058043403058
21
5.8877611856137868
31
0
0
LINE
5
150
100
AcDbEntity
8
0
100
AcDbLine
10
-79.112099391876498
20
25.887761185613787
30
0
11
190.88790060812352
21
25.887761185613787
31
0
0
LINE
5
151
100
AcDbEntity
8
0
100
AcDbLine
10
183.31058043403058
20
13.987761185613788
30
0
11
183.31058043403058
21
13.387761185613787
31
0
0
LINE
5
152
100
AcDbEntity
8
0
100
AcDbLine
10
100.19431246676719
20
20.38776118561379
30
0
11
63.682129242183443
21
20.38776118561379
31
0
0
LINE
5
153
100
AcDbEntity
8
0
100
AcDbLine
10
136.38790060812352
20
12.887761185613787
30
0
11
135.88790060812352
21
12.887761185613787
31
0
0
LINE
5
154
100
AcDbEntity
8
0
100
AcDbLine
10
100.19431246676719
20
13.387761185613787
30
0
11
100.19431246676719
21
20.38776118561379
31
0
0
LINE
5
155
100
AcDbEntity
8
0
100
AcDbLine
10
190.88790060812352
20
25.887761185613787
30
0
11
190.88790060812352
21
5.8877611856137868
31
0
0
LINE
5
156
100
AcDbEntity
8
0
100
AcDbLine
10
178.91058043403058
20
13.387761185613787
30
0
11
147.78333698378449
21
13.387761185613787
31
0
0
LINE
5
157
100
AcDbEntity
8
0
100
AcDbLine
10
147.78333698378449
20
15.887761185613787
30
0
11
147.78333698378449
21
13.387761185613787
31
0
0
LINE
5
158
100
AcDbEntity
8
0
100
AcDbLine
10
135.88790060812352
20
20.38776118561379
30
0
11
101.19431246676719
21
20.38776118561379
31
0
0
LINE
5
159
100
AcDbEntity
8
0
100
AcDbLine
10
145.88790060812352
20
13.387761185613787
30
0
11
145.88790060812352
21
15.887761185613787
31
0
0
LINE
5
160
100
AcDbEntity
8
0
100
AcDbLine
10
136.38790060812352
20
13.387761185613787
30
0
11
136.38790060812352
21
12.887761185613787
31
0
0
LINE
5
161
100
AcDbEntity
8
0
100
AcDbLine
10
101.19431246676719
20
20.38776118561379
30
0
11
101.19431246676719
21
13.387761185613787
31
0
0
LINE
5
162
100
AcDbEntity
8
0
100
AcDbLine
10
135.88790060812352
20
12.887761185613787
30
0
11
135.88790060812352
21
7.3877611856137868
31
0
0
LINE
5
163
100
AcDbEntity
8
0
100
AcDbLine
10
145.88790060812352
20
13.387761185613787
30
0
11
145.88790060812352
21
20.38776118561379
31
0
0
LINE
5
164
100
AcDbEntity
8
0
100
AcDbLine
10
180.81058043403058
20
11.487761185613788
30
0
11
180.81058043403058
21
5.8877611856137868
31
0
0
LINE
5
165
100
AcDbEntity
8
0
100
AcDbLine
10
145.88790060812352
20
20.38776118561379
30
0
11
135.88790060812352
21
20.38776118561379
31
0
0
LINE
5
166
100
AcDbEntity
8
0
100
AcDbLine
10
-27.509688780099616
20
-61.286903157484446
30
0
11
-70.93236860600669
21
-61.286903157484446
31
0
0
LINE
5
167
100
AcDbEntity
8
0
100
AcDbLine
10
-20.509688780099609
20
-53.786903157484446
30
0
11
-20.509688780099609
21
-54.286903157484446
31
0
0
LINE
5
168
100
AcDbEntity
8
0
100
AcDbLine
10
-37.905125155760601
20
-51.286903157484446
30
0
11
-37.905125155760601
21
-53.786903157484446
31
0
0
LINE
5
169
100
AcDbEntity
8
0
100
AcDbLine
10
-70.93236860600669
20
-55.686903157484444
30
0
11
-70.93236860600669
21
-61.286903157484446
31
0
0
LINE
5
170
100
AcDbEntity
8
0
100
AcDbLine
10
-37.905125155760601
20
-51.286903157484446
30
0
11
-71.532368606006685
21
-51.286903157484446
31
0
0
LINE
5
171
100
AcDbEntity
8
0
100
AcDbLine
10
46.196082585840443
20
-46.786903157484446
30
0
11
-26.009688780099616
21
-46.786903157484446
31
0
0
LINE
5
172
100
AcDbEntity
8
0
100
AcDbLine
10
-36.009688780099616
20
-46.786903157484446
30
0
11
-26.009688780099616
21
-46.786903157484446
31
0
0
LINE
5
173
100
AcDbEntity
8
0
100
AcDbLine
10
-73.43236860600669
20
-61.286903157484446
30
0
11
-81.009688780099623
21
-61.286903157484446
31
0
0
LINE
5
174
100
AcDbEntity
8
0
100
AcDbLine
10
-21.009688780099616
20
-53.786903157484446
30
0
11
-20.509688780099609
21
-53.786903157484446
31
0
0
LINE
5
175
100
AcDbEntity
8
0
100
AcDbLine
10
-73.43236860600669
20
-53.786903157484446
30
0
11
-73.43236860600669
21
-61.286903157484446
31
0
0
LINE
5
176
100
AcDbEntity
8
0
100
AcDbLine
10
-73.43236860600669
20
-53.186903157484444
30
0
11
-73.43236860600669
21
-53.786903157484446
31
0
0
LINE
5
177
100
AcDbEntity
8
0
100
AcDbLine
10
-20.509688780099609
20
-53.786903157484446
30
0
11
45.344502987005093
21
-53.786903157484446
31
0
0
LINE
5
178
100
AcDbEntity
8
0
100
AcDbLine
10
-26.509688780099623
20
-54.286903157484446
30
0
11
-26.009688780099616
21
-54.286903157484446
31
0
0
LINE
5
179
100
AcDbEntity
8
0
100
AcDbLine
10
-26.509688780099623
20
-53.786903157484446
30
0
11
-26.509688780099623
21
-54.286903157484446
31
0
0
LINE
5
180
100
AcDbEntity
8
0
100
AcDbLine
10
-20.509688780099609
20
-54.286903157484446
30
0
11
-21.009688780099616
21
-54.286903157484446
31
0
0
LINE
5
181
100
AcDbEntity
8
0
100
AcDbLine
10
-26.009688780099616
20
-51.286903157484446
30
0
11
-26.009688780099616
21
-53.786903157484446
31
0
0
LINE
5
182
100
AcDbEntity
8
0
100
AcDbLine
10
-69.032368606006685
20
-53.786903157484446
30
0
11
-37.905125155760601
21
-53.786903157484446
31
0
0
LINE
5
183
100
AcDbEntity
8
0
100
AcDbLine
10
-36.009688780099616
20
-53.786903157484446
30
0
11
-36.009688780099616
21
-46.786903157484446
31
0
0
LINE
5
184
100
AcDbEntity
8
0
100
AcDbLine
10
-26.009688780099616
20
-51.286903157484446
30
0
11
-26.009688780099616
21
-53.786903157484446
31
0
0
LINE
5
185
100
AcDbEntity
8
0
100
AcDbLine
10
-26.009688780099616
20
-53.786903157484446
30
0
11
-36.009688780099616
21
-53.786903157484446
31
0
0
LINE
5
186
100
AcDbEntity
8
0
100
AcDbLine
10
-21.009688780099616
20
-59.786903157484446
30
0
11
-21.009688780099616
21
-54.286903157484446
31
0
0
LINE
5
187
100
AcDbEntity
8
0
100
AcDbLine
10
-26.009688780099616
20
-54.286903157484446
30
0
11
-26.009688780099616
21
-59.786903157484446
31
0
0
LINE
5
188
100
AcDbEntity
8
0
100
AcDbLine
10
-81.009688780099623
20
-61.286903157484446
30
0
11
-81.009688780099623
21
-41.286903157484446
31
0
0
LINE
5
189
100
AcDbEntity
8
0
100
AcDbLine
10
192.40658434672571
20
-53.786903157484446
30
0
11
181.41299104580747
21
-53.786903157484446
31
0
0
LINE
5
190
100
AcDbEntity
8
0
100
AcDbLine
10
188.99031121990038
20
-61.286903157484446
30
0
11
181.41299104580747
21
-61.286903157484446
31
0
0
LINE
5
191
100
AcDbEntity
8
0
100
AcDbLine
10
-81.009688780099623
20
-41.286903157484446
30
0
11
188.99031121990038
21
-41.286903157484446
31
0
0
LINE
5
192
100
AcDbEntity
8
0
100
AcDbLine
10
181.41299104580747
20
-61.286903157484446
30
0
11
181.41299104580747
21
-53.786903157484446
31
0
0
LINE
5
193
100
AcDbEntity
8
0
100
AcDbLine
10
128.49031121990038
20
-54.286903157484446
30
0
11
128.99031121990038
21
-54.286903157484446
31
0
0
LINE
5
194
100
AcDbEntity
8
0
100
AcDbLine
10
178.91299104580747
20
-61.286903157484446
30
0
11
135.49031121990038
21
-61.286903157484446
31
0
0
LINE
5
195
100
AcDbEntity
8
0
100
AcDbLine
10
181.41299104580747
20
-53.186903157484444
30
0
11
181.41299104580747
21
-53.786903157484446
31
0
0
LINE
5
196
100
AcDbEntity
8
0
100
AcDbLine
10
145.88574759556136
20
-51.286903157484446
30
0
11
179.51299104580744
21
-51.286903157484446
31
0
0
LINE
5
197
100
AcDbEntity
8
0
100
AcDbLine
10
98.296723078544076
20
-46.786903157484446
30
0
11
61.784539853960325
21
-46.786903157484446
31
0
0
LINE
5
198
100
AcDbEntity
8
0
100
AcDbLine
10
134.49031121990038
20
-53.786903157484446
30
0
11
143.99031121990038
21
-53.786903157484446
31
0
0
LINE
5
199
100
AcDbEntity
8
0
100
AcDbLine
10
128.49031121990038
20
-53.786903157484446
30
0
11
128.49031121990038
21
-54.286903157484446
31
0
0
LINE
5
200
100
AcDbEntity
8
0
100
AcDbLine
10
134.49031121990038
20
-54.286903157484446
30
0
11
133.99031121990038
21
-54.286903157484446
31
0
0
LINE
5
201
100
AcDbEntity
8
0
100
AcDbLine
10
127.49031121990038
20
-61.286903157484446
30
0
11
-19.50968878009963
21
-61.286903157484446
31
0
0
LINE
5
202
100
AcDbEntity
8
0
100
AcDbLine
10
98.296723078544076
20
-53.786903157484446
30
0
11
98.296723078544076
21
-46.786903157484446
31
0
0
LINE
5
203
100
AcDbEntity
8
0
100
AcDbLine
10
188.99031121990038
20
-41.286903157484446
30
0
11
188.99031121990038
21
-61.286903157484446
31
0
0
LINE
5
204
100
AcDbEntity
8
0
100
AcDbLine
10
177.01299104580744
20
-53.786903157484446
30
0
11
145.88574759556136
21
-53.786903157484446
31
0
0
LINE
5
205
100
AcDbEntity
8
0
100
AcDbLine
10
145.88574759556136
20
-51.286903157484446
30
0
11
145.88574759556136
21
-53.786903157484446
31
0
0
LINE
5
206
100
AcDbEntity
8
0
100
AcDbLine
10
133.99031121990038
20
-46.786903157484446
30
0
11
99.296723078544062
21
-46.786903157484446
31
0
0
LINE
5
207
100
AcDbEntity
8
0
100
AcDbLine
10
128.99031121990038
20
-59.786903157484446
30
0
11
128.99031121990038
21
-54.286903157484446
31
0
0
LINE
5
208
100
AcDbEntity
8
0
100
AcDbLine
10
143.99031121990038
20
-53.786903157484446
30
0
11
143.99031121990038
21
-51.286903157484446
31
0
0
LINE
5
209
100
AcDbEntity
8
0
100
AcDbLine
10
134.49031121990038
20
-53.786903157484446
30
0
11
134.49031121990038
21
-54.286903157484446
31
0
0
LINE
5
210
100
AcDbEntity
8
0
100
AcDbLine
10
99.296723078544062
20
-46.786903157484446
30
0
11
99.296723078544062
21
-53.786903157484446
31
0
0
LINE
5
211
100
AcDbEntity
8
0
100
AcDbLine
10
133.99031121990038
20
-54.286903157484446
30
0
11
133.99031121990038
21
-59.786903157484446
31
0
0
LINE
5
212
100
AcDbEntity
8
0
100
AcDbLine
10
143.99031121990038
20
-53.786903157484446
30
0
11
143.99031121990038
21
-46.786903157484446
31
0
0
LINE
5
213
100
AcDbEntity
8
0
100
AcDbLine
10
178.91299104580747
20
-55.686903157484444
30
0
11
178.91299104580747
21
-61.286903157484446
31
0
0
LINE
5
214
100
AcDbEntity
8
0
100
AcDbLine
10
143.99031121990038
20
-46.786903157484446
30
0
11
133.99031121990038
21
-46.786903157484446
31
0
0
LINE
5
215
100
AcDbEntity
8
0
100
AcDbLine
10
46.196082585840443
20
-46.786903157484446
30
0
11
61.784539853960325
21
-46.786903157484446
31
0
0
LINE
5
216
100
AcDbEntity
8
0
100
AcDbLine
10
45.344502987005093
20
-53.786903157484446
30
0
11
62.636119452795675
21
-53.786903157484446
31
0
0
LWPOLYLINE
5
217
100
AcDbEntity
8
0
100
AcDbPolyline
90
4
70
1
43
0.0
10
189.13374637931076
20
-87.829250196153197
10
189.13374637931076
20
-67.829250196153211
10
-80.866253620689236
20
-67.829250196153211
10
-80.866253620689221
20
-87.829250196153197
0
LINE
5
218
100
AcDbEntity
8
0
100
AcDbLine
10
54.133746379310764
20
-67.829250196153211
30
0
11
54.133746379310779
21
-87.829250196153197
31
0
0
CIRCLE
5
219
100
AcDbEntity
8
0
100
AcDbCircle
10
54.133746379310772
20
-77.829250196153211
30
0
40
9.0000000000000036
0
LINE
5
220
100
AcDbEntity
8
0
100
AcDbLine
10
44.100741163204319
20
-77.829250196153197
30
0
11
64.999037602279245
21
-77.829250196153211
31
0
0
LINE
5
221
100
AcDbEntity
8
0
100
AcDbLine
10
59.133746379310772
20
-77.829250196153211
30
0
11
49.133746379310772
21
-77.829250196153211
31
0
0
LWPOLYLINE
5
222
100
AcDbEntity
8
0
100
AcDbPolyline
90
4
70
1
43
0.0
10
58.633746379310772
20
-80.829250196153197
10
59.633746379310764
20
-80.829250196153197
10
59.633746379310764
20
-74.829250196153211
10
58.633746379310772
20
-74.829250196153211
0
LWPOLYLINE
5
223
100
AcDbEntity
8
0
100
AcDbPolyline
90
4
70
1
43
0.0
10
49.633746379310757
20
-74.829250196153211
10
49.633746379310779
20
-80.829250196153197
10
48.633746379310772
20
-80.829250196153197
10
48.633746379310772
20
-74.829250196153211
0
LINE
5
224
100
AcDbEntity
8
0
100
AcDbLine
10
-17.612099391876512
20
5.8877611856137877
30
0
11
-17.612099391876512
21
5.8877611856137877
31
0
0
LINE
5
225
100
AcDbEntity
8
0
100
AcDbLine
10
-19.112099391876498
20
7.3877611856137868
30
0
11
-19.112099391876498
21
7.3877611856137868
31
0
0
LINE
5
226
100
AcDbEntity
8
0
100
AcDbLine
10
64.533708841018793
20
13.387761185613787
30
0
11
100.19431246676719
21
13.387761185613787
31
0
0
LINE
5
227
100
AcDbEntity
8
0
100
AcDbLine
10
130.88790060812352
20
71.615723663048158
30
0
11
130.88790060812352
21
20.38776118561379
31
0
0
LINE
5
228
100
AcDbEntity
8
0
100
AcDbLine
10
145.88790060812352
20
13.387761185613787
30
0
11
136.38790060812352
21
13.387761185613787
31
0
0
LINE
5
229
100
AcDbEntity
8
0
100
AcDbLine
10
183.31058043403058
20
13.987761185613788
30
0
11
181.41058043403058
21
15.887761185613787
31
0
0
LINE
5
230
100
AcDbEntity
8
0
100
AcDbLine
10
180.81058043403058
20
11.487761185613788
30
0
11
178.91058043403058
21
13.387761185613787
31
0
0
LINE
5
231
100
AcDbEntity
8
0
100
AcDbLine
10
137.38790060812352
20
5.8877611856137904
30
0
11
135.88790060812352
21
7.3877611856137868
31
0
0
LINE
5
232
100
AcDbEntity
8
0
100
AcDbLine
10
130.88790060812352
20
7.3877611856137868
30
0
11
129.38790060812349
21
5.8877611856137904
31
0
0
LINE
5
233
100
AcDbEntity
8
0
100
AcDbLine
10
130.38790060812349
20
13.387761185613787
30
0
11
101.19431246676719
21
13.387761185613787
31
0
0
LINE
5
234
100
AcDbEntity
8
0
100
AcDbLine
10
-67.13477921778356
20
13.387761185613787
30
0
11
-69.03477921778358
21
11.487761185613788
31
0
0
LINE
5
235
100
AcDbEntity
8
0
100
AcDbLine
10
-69.63477921778356
20
15.887761185613787
30
0
11
-71.53477921778358
21
13.987761185613788
31
0
0
LINE
5
236
100
AcDbEntity
8
0
100
AcDbLine
10
-17.612099391876512
20
5.8877611856137877
30
0
11
-19.112099391876498
21
7.3877611856137868
31
0
0
LINE
5
237
100
AcDbEntity
8
0
100
AcDbLine
10
-24.112099391876498
20
7.3877611856137868
30
0
11
-25.612099391876498
21
5.887761185613785
31
0
0
LINE
5
238
100
AcDbEntity
8
0
100
AcDbLine
10
179.51299104580744
20
-51.286903157484446
30
0
11
181.41299104580747
21
-53.186903157484444
31
0
0
LINE
5
239
100
AcDbEntity
8
0
100
AcDbLine
10
178.91299104580747
20
-55.686903157484444
30
0
11
177.01299104580744
21
-53.786903157484446
31
0
0
LINE
5
240
100
AcDbEntity
8
0
100
AcDbLine
10
133.99031121990038
20
-59.786903157484446
30
0
11
135.49031121990038
21
-61.286903157484446
31
0
0
LINE
5
241
100
AcDbEntity
8
0
100
AcDbLine
10
128.99031121990038
20
-59.786903157484446
30
0
11
127.49031121990038
21
-61.286903157484446
31
0
0
LINE
5
242
100
AcDbEntity
8
0
100
AcDbLine
10
62.636119452795675
20
-53.786903157484446
30
0
11
98.296723078544076
21
-53.786903157484446
31
0
0
LINE
5
243
100
AcDbEntity
8
0
100
AcDbLine
10
99.296723078544062
20
-53.786903157484446
30
0
11
128.49031121990038
21
-53.786903157484446
31
0
0
LINE
5
244
100
AcDbEntity
8
0
100
AcDbLine
10
-21.009688780099616
20
-59.786903157484446
30
0
11
-19.50968878009963
21
-61.286903157484446
31
0
0
LINE
5
245
100
AcDbEntity
8
0
100
AcDbLine
10
-26.009688780099616
20
-59.786903157484446
30
0
11
-27.509688780099616
21
-61.286903157484446
31
0
0
LINE
5
246
100
AcDbEntity
8
0
100
AcDbLine
10
-69.032368606006685
20
-53.786903157484446
30
0
11
-70.93236860600669
21
-55.686903157484444
31
0
0
LINE
5
247
100
AcDbEntity
8
0
100
AcDbLine
10
-71.532368606006685
20
-51.286903157484446
30
0
11
-73.43236860600669
21
-53.186903157484444
31
0
0
ENDSEC
0
SECTION
2
OBJECTS
0
DICTIONARY
5
C
100
AcDbDictionary
3
ACAD_GROUP
350
D
3
ACAD_MLINESTYLE
350
17
0
DICTIONARY
5
D
100
AcDbDictionary
0
DICTIONARY
5
1A
330
C
100
AcDbDictionary
0
DICTIONARY
5
17
100
AcDbDictionary
0
ENDSEC
0
EOF
