0
SECTION
2
HEADER
9
$INSUNITS
70
4
9
$ACADVER
1
AC1014
9
$HANDSEED
5
FFFF
0
ENDSEC
0
SECTION
2
TABLES
0
TABLE
2
VPORT
5
8
100
AcDbSymbolTable
0
ENDTAB
0
TABLE
2
LTYPE
5
5
100
AcDbSymbolTable
0
LTYPE
5
14
100
AcDbSymbolTableRecord
100
AcDbLinetypeTableRecord
2
BYBLOCK
70
0
0
LTYPE
5
15
100
AcDbSymbolTableRecord
100
AcDbLinetypeTableRecord
2
BYLAYER
70
0
0
ENDTAB
0
TABLE
2
LAYER
5
2
100
AcDbSymbolTable
70
2
0
LAYER
5
50
100
AcDbSymbolTableRecord
100
AcDbLayerTableRecord
2
0
70
0
6
CONTINUOUS
0
ENDTAB
0
TABLE
2
STYLE
5
3
100
AcDbSymbolTable
70
1
0
STYLE
5
11
100
AcDbSymbolTableRecord
100
AcDbTextStyleTableRecord
2
STANDARD
70
0
0
ENDTAB
0
TABLE
2
VIEW
5
6
100
AcDbSymbolTable
70
0
0
ENDTAB
0
TABLE
2
UCS
5
7
100
AcDbSymbolTable
70
0
0
ENDTAB
0
TABLE
2
APPID
5
9
100
AcDbSymbolTable
70
2
0
APPID
5
12
100
AcDbSymbolTableRecord
100
AcDbRegAppTableRecord
2
ACAD
70
0
0
ENDTAB
0
TABLE
2
DIMSTYLE
5
A
100
AcDbSymbolTable
70
1
0
ENDTAB
0
TABLE
2
BLOCK_RECORD
5
1
100
AcDbSymbolTable
70
1
0
BLOCK_RECORD
5
1F
100
AcDbSymbolTableRecord
100
AcDbBlockTableRecord
2
*MODEL_SPACE
0
BLOCK_RECORD
5
1B
100
AcDbSymbolTableRecord
100
AcDbBlockTableRecord
2
*PAPER_SPACE
0
ENDTAB
0
ENDSEC
0
SECTION
2
BLOCKS
0
BLOCK
5
20
100
AcDbEntity
100
AcDbBlockBegin
2
*MODEL_SPACE
0
ENDBLK
5
21
100
AcDbEntity
100
AcDbBlockEnd
0
BLOCK
5
1C
100
AcDbEntity
100
AcDbBlockBegin
2
*PAPER_SPACE
0
ENDBLK
5
1D
100
AcDbEntity
100
AcDbBlockEnd
0
ENDSEC
0
SECTION
2
ENTITIES
0
SPLINE
5
100
100
AcDbEntity
8
0
100
AcDbSpline
70
1064
71
5
72
446
73
440
74
0
42
0.000000001
43
0.0000000001
44
0.0000000001
40
0
40
0
40
0
40
0
40
0
40
0
40
0.0022988505747126436
40
0.0045977011494252873
40
0.0068965517241379309
40
0.0091954022988505746
40
0.011494252873563218
40
0.013793103448275862
40
0.016091954022988506
40
0.018390804597701149
40
0.020689655172413793
40
0.022988505747126436
40
0.02528735632183908
40
0.027586206896551724
40
0.029885057471264367
40
0.032183908045977011
40
0.034482758620689655
40
0.036781609195402298
40
0.039080459770114942
40
0.041379310344827586
40
0.043678160919540229
40
0.045977011494252873
40
0.048275862068965517
40
0.05057471264367816
40
0.052873563218390804
40
0.055172413793103448
40
0.057471264367816091
40
0.059770114942528735
40
0.062068965517241378
40
0.064367816091954022
40
0.066666666666666666
40
0.068965517241379309
40
0.071264367816091953
40
0.073563218390804597
40
0.07586206896551724
40
0.078160919540229884
40
0.080459770114942528
40
0.082758620689655171
40
0.085057471264367815
40
0.087356321839080459
40
0.089655172413793102
40
0.091954022988505746
40
0.094252873563218389
40
0.096551724137931033
40
0.098850574712643677
40
0.10114942528735632
40
0.10344827586206896
40
0.10574712643678161
40
0.10804597701149425
40
0.1103448275862069
40
0.11264367816091954
40
0.11494252873563218
40
0.11724137931034483
40
0.11954022988505747
40
0.12183908045977011
40
0.12413793103448276
40
0.12643678160919541
40
0.12873563218390804
40
0.13103448275862067
40
0.1333333333333333
40
0.13563218390804593
40
0.13793103448275856
40
0.14022988505747119
40
0.14252873563218382
40
0.14482758620689645
40
0.14712643678160908
40
0.14942528735632171
40
0.15172413793103434
40
0.15402298850574697
40
0.1563218390804596
40
0.15862068965517223
40
0.16091954022988486
40
0.16321839080459749
40
0.16551724137931012
40
0.16781609195402275
40
0.17011494252873538
40
0.17241379310344801
40
0.17471264367816064
40
0.17701149425287327
40
0.1793103448275859
40
0.18160919540229853
40
0.18390804597701116
40
0.18620689655172379
40
0.18850574712643642
40
0.19080459770114905
40
0.19310344827586168
40
0.19540229885057431
40
0.19770114942528694
40
0.19999999999999957
40
0.2022988505747122
40
0.20459770114942483
40
0.20689655172413746
40
0.20919540229885009
40
0.21149425287356272
40
0.21379310344827535
40
0.21609195402298798
40
0.21839080459770061
40
0.22068965517241323
40
0.22298850574712586
40
0.22528735632183849
40
0.22758620689655112
40
0.22988505747126375
40
0.23218390804597638
40
0.23448275862068901
40
0.23678160919540164
40
0.23908045977011427
40
0.2413793103448269
40
0.24367816091953953
40
0.24597701149425216
40
0.24827586206896479
40
0.25057471264367742
40
0.25287356321839005
40
0.25517241379310268
40
0.25747126436781531
40
0.25977011494252794
40
0.26206896551724057
40
0.2643678160919532
40
0.26666666666666583
40
0.26896551724137846
40
0.27126436781609109
40
0.27356321839080372
40
0.27586206896551635
40
0.27816091954022898
40
0.28045977011494161
40
0.28275862068965424
40
0.28505747126436687
40
0.2873563218390795
40
0.28965517241379213
40
0.29195402298850476
40
0.29425287356321739
40
0.29655172413793002
40
0.29885057471264265
40
0.30114942528735528
40
0.30344827586206791
40
0.30574712643678054
40
0.30804597701149317
40
0.3103448275862058
40
0.31264367816091843
40
0.31494252873563106
40
0.31724137931034369
40
0.31954022988505631
40
0.32183908045976894
40
0.32413793103448157
40
0.3264367816091942
40
0.32873563218390683
40
0.33103448275861946
40
0.33333333333333209
40
0.33563218390804472
40
0.33793103448275735
40
0.34022988505746998
40
0.34252873563218261
40
0.34482758620689524
40
0.34712643678160787
40
0.3494252873563205
40
0.35172413793103313
40
0.35402298850574576
40
0.35632183908045839
40
0.35862068965517102
40
0.36091954022988365
40
0.36321839080459628
40
0.36551724137930891
40
0.36781609195402154
40
0.37011494252873417
40
0.3724137931034468
40
0.37471264367815943
40
0.37701149425287206
40
0.37931034482758469
40
0.38160919540229732
40
0.38390804597700995
40
0.38620689655172258
40
0.38850574712643521
40
0.39080459770114784
40
0.39310344827586047
40
0.3954022988505731
40
0.39770114942528573
40
0.39999999999999836
40
0.40229885057471099
40
0.40459770114942362
40
0.40689655172413625
40
0.40919540229884888
40
0.41149425287356151
40
0.41379310344827414
40
0.41609195402298677
40
0.4183908045976994
40
0.42068965517241202
40
0.42298850574712465
40
0.42528735632183728
40
0.42758620689654991
40
0.42988505747126254
40
0.43218390804597517
40
0.4344827586206878
40
0.43678160919540043
40
0.43908045977011306
40
0.44137931034482569
40
0.44367816091953832
40
0.44597701149425095
40
0.44827586206896358
40
0.45057471264367621
40
0.45287356321838884
40
0.45517241379310147
40
0.4574712643678141
40
0.45977011494252673
40
0.46206896551723936
40
0.46436781609195199
40
0.46666666666666462
40
0.46896551724137725
40
0.47126436781608988
40
0.47356321839080251
40
0.47586206896551514
40
0.47816091954022777
40
0.4804597701149404
40
0.48275862068965303
40
0.48505747126436566
40
0.48735632183907829
40
0.48965517241379092
40
0.49195402298850355
40
0.49425287356321618
40
0.49655172413792881
40
0.49885057471264144
40
0.50114942528735407
40
0.50344827586206675
40
0.50574712643677944
40
0.50804597701149212
40
0.51034482758620481
40
0.51264367816091749
40
0.51494252873563018
40
0.51724137931034286
40
0.51954022988505555
40
0.52183908045976823
40
0.52413793103448092
40
0.5264367816091936
40
0.52873563218390629
40
0.53103448275861898
40
0.53333333333333166
40
0.53563218390804435
40
0.53793103448275703
40
0.54022988505746972
40
0.5425287356321824
40
0.54482758620689509
40
0.54712643678160777
40
0.54942528735632046
40
0.55172413793103314
40
0.55402298850574583
40
0.55632183908045851
40
0.5586206896551712
40
0.56091954022988388
40
0.56321839080459657
40
0.56551724137930925
40
0.56781609195402194
40
0.57011494252873463
40
0.57241379310344731
40
0.57471264367816
40
0.57701149425287268
40
0.57931034482758537
40
0.58160919540229805
40
0.58390804597701074
40
0.58620689655172342
40
0.58850574712643611
40
0.59080459770114879
40
0.59310344827586148
40
0.59540229885057416
40
0.59770114942528685
40
0.59999999999999953
40
0.60229885057471222
40
0.6045977011494249
40
0.60689655172413759
40
0.60919540229885027
40
0.61149425287356296
40
0.61379310344827565
40
0.61609195402298833
40
0.61839080459770102
40
0.6206896551724137
40
0.62298850574712639
40
0.62528735632183907
40
0.62758620689655176
40
0.62988505747126444
40
0.63218390804597713
40
0.63448275862068981
40
0.6367816091954025
40
0.63908045977011518
40
0.64137931034482787
40
0.64367816091954055
40
0.64597701149425324
40
0.64827586206896592
40
0.65057471264367861
40
0.6528735632183913
40
0.65517241379310398
40
0.65747126436781667
40
0.65977011494252935
40
0.66206896551724204
40
0.66436781609195472
40
0.66666666666666741
40
0.66896551724138009
40
0.67126436781609278
40
0.67356321839080546
40
0.67586206896551815
40
0.67816091954023083
40
0.68045977011494352
40
0.6827586206896562
40
0.68505747126436889
40
0.68735632183908157
40
0.68965517241379426
40
0.69195402298850694
40
0.69425287356321963
40
0.69655172413793232
40
0.698850574712645
40
0.70114942528735769
40
0.70344827586207037
40
0.70574712643678306
40
0.70804597701149574
40
0.71034482758620843
40
0.71264367816092111
40
0.7149425287356338
40
0.71724137931034648
40
0.71954022988505917
40
0.72183908045977185
40
0.72413793103448454
40
0.72643678160919722
40
0.72873563218390991
40
0.73103448275862259
40
0.73333333333333528
40
0.73563218390804797
40
0.73793103448276065
40
0.74022988505747334
40
0.74252873563218602
40
0.74482758620689871
40
0.74712643678161139
40
0.74942528735632408
40
0.75172413793103676
40
0.75402298850574945
40
0.75632183908046213
40
0.75862068965517482
40
0.7609195402298875
40
0.76321839080460019
40
0.76551724137931287
40
0.76781609195402556
40
0.77011494252873824
40
0.77241379310345093
40
0.77471264367816361
40
0.7770114942528763
40
0.77931034482758899
40
0.78160919540230167
40
0.78390804597701436
40
0.78620689655172704
40
0.78850574712643973
40
0.79080459770115241
40
0.7931034482758651
40
0.79540229885057778
40
0.79770114942529047
40
0.80000000000000315
40
0.80229885057471584
40
0.80459770114942852
40
0.80689655172414121
40
0.80919540229885389
40
0.81149425287356658
40
0.81379310344827926
40
0.81609195402299195
40
0.81839080459770464
40
0.82068965517241732
40
0.82298850574713001
40
0.82528735632184269
40
0.82758620689655538
40
0.82988505747126806
40
0.83218390804598075
40
0.83448275862069343
40
0.83678160919540612
40
0.8390804597701188
40
0.84137931034483149
40
0.84367816091954417
40
0.84597701149425686
40
0.84827586206896954
40
0.85057471264368223
40
0.85287356321839491
40
0.8551724137931076
40
0.85747126436782029
40
0.85977011494253297
40
0.86206896551724566
40
0.86436781609195834
40
0.86666666666667103
40
0.86896551724138371
40
0.8712643678160964
40
0.87356321839080908
40
0.87586206896552177
40
0.87816091954023445
40
0.88045977011494714
40
0.88275862068965982
40
0.88505747126437251
40
0.88735632183908519
40
0.88965517241379788
40
0.89195402298851056
40
0.89425287356322325
40
0.89655172413793593
40
0.89885057471264862
40
0.90114942528736131
40
0.90344827586207399
40
0.90574712643678668
40
0.90804597701149936
40
0.91034482758621205
40
0.91264367816092473
40
0.91494252873563742
40
0.9172413793103501
40
0.91954022988506279
40
0.92183908045977547
40
0.92413793103448816
40
0.92643678160920084
40
0.92873563218391353
40
0.93103448275862621
40
0.9333333333333389
40
0.93563218390805158
40
0.93793103448276427
40
0.94022988505747696
40
0.94252873563218964
40
0.94482758620690233
40
0.94712643678161501
40
0.9494252873563277
40
0.95172413793104038
40
0.95402298850575307
40
0.95632183908046575
40
0.95862068965517844
40
0.96091954022989112
40
0.96321839080460381
40
0.96551724137931649
40
0.96781609195402918
40
0.97011494252874186
40
0.97241379310345455
40
0.97471264367816723
40
0.97701149425287992
40
0.9793103448275926
40
0.98160919540230529
40
0.98390804597701798
40
0.98620689655173066
40
0.98850574712644335
40
0.99080459770115603
40
0.99310344827586872
40
0.9954022988505814
40
0.99770114942529409
40
1
40
1
40
1
40
1
40
1
40
1
10
-5.092533389682897
20
-18.67262242883729
30
0
10
-5.0602366236559506
20
-18.697899684679793
30
0
10
-4.9868016327283495
20
-18.74137050939617
30
0
10
-4.8504242140649669
20
-18.785562739691976
30
0
10
-4.6210606828247522
20
-18.805988876759383
30
0
10
-4.2795643901868266
20
-18.784734604913023
30
0
10
-3.9134209422216109
20
-18.738326822306966
30
0
10
-3.5517591792789376
20
-18.688143448781304
30
0
10
-3.216803798991474
20
-18.651340024217625
30
0
10
-2.9158840652979636
20
-18.635532115430578
30
0
10
-2.6413753151579709
20
-18.638573451271977
30
0
10
-2.3777554219253885
20
-18.652908025215805
30
0
10
-2.1069143735207279
20
-18.66879377814811
30
0
10
-1.8136844323338508
20
-18.677682067927879
30
0
10
-1.4924784490144802
20
-18.676274974307674
30
0
10
-1.1490039032433956
20
-18.667535041266589
30
0
10
-0.79536808159955463
20
-18.657581366956954
30
0
10
-0.44693784565429839
20
-18.653701028835261
30
0
10
-0.11831899394081302
20
-18.661753573631483
30
0
10
0.17989898281772579
20
-18.68419163457154
30
0
10
0.44570047125727158
20
-18.716922921121004
30
0
10
0.68524319574049208
20
-18.750740391825747
30
0
10
0.90909684364927612
20
-18.775988436431415
30
0
10
1.1295290162826135
20
-18.786031238940467
30
0
10
1.3572386574533135
20
-18.781755001087287
30
0
10
1.5986875143574357
20
-18.774052235689382
30
0
10
1.8559146413588961
20
-18.776551488240514
30
0
10
2.1259676280610269
20
-18.799088057318865
30
0
10
2.4007050297774288
20
-18.841727947526635
30
0
10
2.6658737760808631
20
-18.886444383329561
30
0
10
2.9039002576201147
20
-18.902310269877866
30
0
10
3.0983574151342759
20
-18.856569005475794
30
0
10
3.2374737942451173
20
-18.722878356895709
30
0
10
3.3190364688228877
20
-18.492925274973395
30
0
10
3.3500738766887537
20
-18.17640662186961
30
0
10
3.3433300722432246
20
-17.793997738168343
30
0
10
3.3147462504471403
20
-17.372507912191434
30
0
10
3.2804298649098884
20
-16.938938116890398
30
0
10
3.2540679210773082
20
-16.515463293854328
30
0
10
3.2435777291374728
20
-16.112861374320534
30
0
10
3.2511932940827402
20
-15.730893741580129
30
0
10
3.2750526536007691
20
-15.361717051703005
30
0
10
3.3103145650071077
20
-14.992347012651461
30
0
10
3.3504556205633023
20
-14.607480589297948
30
0
10
3.3885248790640525
20
-14.192246436762515
30
0
10
3.4183346190696771
20
-13.734793513438078
30
0
10
3.4358901263807167
20
-13.229445692877837
30
0
10
3.4393910549151778
20
-12.676502904028302
30
0
10
3.428740216082109
20
-12.080887598346813
30
0
10
3.4052154619863355
20
-11.451173490722775
30
0
10
3.3710731207858311
20
-10.798453832095786
30
0
10
3.3291816929937514
20
-10.135280767756857
30
0
10
3.2826406021893191
20
-9.4745692930308305
30
0
10
3.2344099145551111
20
-8.828527787850696
30
0
10
3.1869248310426244
20
-8.2075508164187969
30
0
10
3.1417411987847643
20
-7.6191893560459132
30
0
10
3.0991088448572586
20
-7.0669405085241461
30
0
10
3.0577581275412609
20
-6.5495706240105447
30
0
10
3.0154404485930444
20
-6.0623258315212372
30
0
10
2.9693490254897492
20
-5.5978418992291683
30
0
10
2.9165846120996348
20
-5.1471687746150145
30
0
10
2.85460661388738
20
-4.7007533959444725
30
0
10
2.7816799054469863
20
-4.249423643392543
30
0
10
2.6973481345956407
20
-3.7854107978048122
30
0
10
2.6028379263149599
20
-3.3032639777178834
30
0
10
2.501640438377708
20
-2.8010449392634769
30
0
10
2.399183273957179
20
-2.2800816323497926
30
0
10
2.3021263238157026
20
-1.744125200035892
30
0
10
2.2177776511003957
20
-1.1986982490358202
30
0
10
2.1534621514939745
20
-0.65036605871932995
30
0
10
2.1159041526448132
20
-0.10603505694873955
30
0
10
2.1106186980921939
20
0.42774684578282107
30
0
10
2.1412648962883569
20
0.94552227035482483
30
0
10
2.2090953417394261
20
1.4435687967028989
30
0
10
2.3121678472427423
20
1.9207623748167324
30
0
10
2.4453985309632937
20
2.3786640417560809
30
0
10
2.6016177884167564
20
2.8206807379061383
30
0
10
2.7723655718471489
20
3.2514664772242483
30
0
10
2.9487973584186475
20
3.6762221895824871
30
0
10
3.1225318316430144
20
4.1000473314052019
30
0
10
3.2865489079644679
20
4.5272498043255389
30
0
10
3.4360072630964704
20
4.9607190626191313
30
0
10
3.5692383174709521
20
5.4011629954879972
30
0
10
3.6882167478385988
20
5.8467475787907395
30
0
10
3.7974495609724301
20
6.2939530132944697
30
0
10
3.9031445161057183
20
6.7382145125873194
30
0
10
4.0122617584986067
20
7.1746541663595718
30
0
10
4.13163060326284
20
7.5987597814899601
30
0
10
4.2670028413979306
20
8.007119351741915
30
0
10
4.4222160884608988
20
8.3980550350519643
30
0
10
4.5981079914220366
20
8.7724871202176189
30
0
10
4.7922421405018545
20
9.1340470715507589
30
0
10
4.9999522430239187
20
9.4879707888386235
30
0
10
5.2150829660748297
20
9.8402722086881074
30
0
10
5.4308497097301736
20
10.196807691507102
30
0
10
5.6406546956761652
20
10.56237879665635
30
0
10
5.8389051095769204
20
10.939837840903765
30
0
10
6.0218701852920038
20
11.329146242563848
30
0
10
6.1884076972605362
20
11.7265846019219
30
0
10
6.3389736081613526
20
12.125945151464313
30
0
10
6.4747425541315975
20
12.519596240350591
30
0
10
6.5966882615843492
20
12.899593287468672
30
0
10
6.7046765329176674
20
13.258774572819569
30
0
10
6.7965631256605761
20
13.591852897349877
30
0
10
6.8672651888808653
20
13.896534139215079
30
0
10
6.907907099755084
20
14.174559347065642
30
0
10
6.908454587140084
20
14.429244195665099
30
0
10
6.860453064540712
20
14.662903586298199
30
0
10
6.7594317050277732
20
14.874635946324577
30
0
10
6.6081506478264735
20
15.057202446948708
30
0
10
6.4170497625428267
20
15.19691522530854
30
0
10
6.1995239489771272
20
15.27914987041232
30
0
10
5.9687061101795615
20
15.292148370221783
30
0
10
5.7328791408481496
20
15.232498778190081
30
0
10
5.4941673550647252
20
15.106415874347633
30
0
10
5.2515657363738413
20
14.925406902692496
30
0
10
5.0030433887571526
20
14.70312450740531
30
0
10
4.7477982678055275
20
14.452059592147986
30
0
10
4.488982198042236
20
14.179534462899927
30
0
10
4.2343306882337854
20
13.886714914061269
30
0
10
3.9935123788275924
20
13.572326321370159
30
0
10
3.7762194264483444
20
13.235310280239025
30
0
10
3.5900559992758674
20
12.877764844246144
30
0
10
3.4382891734672993
20
12.508095257610144
30
0
10
3.3181828185060231
20
12.143298152722664
30
0
10
3.2177569134044353
20
11.813578829313618
30
0
10
3.1195852007601683
20
11.556567702356645
30
0
10
3.0096639387493096
20
11.404122192052192
30
0
10
2.8837151712477755
20
11.372770226273179
30
0
10
2.7568841625408327
20
11.449482481937336
30
0
10
2.6651639468467989
20
11.588703828147313
30
0
10
2.6419872231429169
20
11.743276633627058
30
0
10
2.6926289374188461
20
11.898139146446955
30
0
10
2.7971910853025932
20
12.066252110195139
30
0
10
2.9268189960150108
20
12.267347229884731
30
0
10
3.0577887360712315
20
12.508756797391438
30
0
10
3.1791424137291018
20
12.777215507551279
30
0
10
3.2874392216543846
20
13.050966570915616
30
0
10
3.3846814141716908
20
13.307223844994077
30
0
10
3.4751453534046965
20
13.530522481406862
30
0
10
3.5621959178639822
20
13.723152949705916
30
0
10
3.6471533687676416
20
13.904242752381847
30
0
10
3.7301992733419889
20
14.098425626842438
30
0
10
3.8106414460733329
20
14.328291615882955
30
0
10
3.8875515546065604
20
14.603395939175543
30
0
10
3.9597092688736071
20
14.92000076678298
30
0
10
4.0252643959216554
20
15.266209744910617
30
0
10
4.0814879294864319
20
15.625432975532922
30
0
10
4.1244706499196635
20
15.98060581414858
30
0
10
4.1488813311217978
20
16.317935560635554
30
0
10
4.1475997862284562
20
16.631250836473669
30
0
10
4.1130290316269962
20
16.91945267034346
30
0
10
4.0385179684389652
20
17.183478584511644
30
0
10
3.9197994819039925
20
17.423318667324512
30
0
10
3.7562965741238812
20
17.635287301858828
30
0
10
3.552812802430358
20
17.808459318504266
30
0
10
3.3184324500817679
20
17.927353782581744
30
0
10
3.0647413080019792
20
17.976235684260278
30
0
10
2.8043403953501929
20
17.942561535087009
30
0
10
2.5490958852978967
20
17.821492228975142
30
0
10
2.3089986378264333
20
17.61743961539436
30
0
10
2.0918338868409552
20
17.341341898235306
30
0
10
1.9026914879973615
20
17.008963808870849
30
0
10
1.7434745162960357
20
16.638757002261237
30
0
10
1.6125605507844161
20
16.249970254144436
30
0
10
1.5040138554112381
20
15.860497731300871
30
0
10
1.4088403687918536
20
15.485563897312844
30
0
10
1.3175205596276656
20
15.136822462993791
30
0
10
1.2220545269472032
20
14.821409042009288
30
0
10
1.1184242156230277
20
14.54084068280736
30
0
10
1.0083784531965132
20
14.290379263043235
30
0
10
0.90272451826457556
20
14.057224030155142
30
0
10
0.81969084045914764
20
13.822627613904555
30
0
10
0.77637684805621066
20
13.569527475417427
30
0
10
0.78133401237964961
20
13.289291522142953
30
0
10
0.82781671473324248
20
12.987884194677639
30
0
10
0.88382440088526648
20
12.694707201920091
30
0
10
0.90595732379958305
20
12.451849138754305
30
0
10
0.86122654400615839
20
12.297059879754935
30
0
10
0.74324868300393909
20
12.250770412585766
30
0
10
0.59817406319271926
20
12.29660633439563
30
0
10
0.49555365996253625
20
12.396588660774013
30
0
10
0.46417604098201443
20
12.525892971206183
30
0
10
0.47878652504452546
20
12.682748255235229
30
0
10
0.5015390454851294
20
12.872515827455473
30
0
10
0.51633217041617774
20
13.095965268053362
30
0
10
0.52878582065471702
20
13.347212462829333
30
0
10
0.55222702024139458
20
13.615997749690038
30
0
10
0.59966625092222692
20
13.888577940154381
30
0
10
0.67073474261335142
20
14.14878657670177
30
0
10
0.75066771773618801
20
14.380758832170777
30
0
10
0.82143873392340327
20
14.574570162904422
30
0
10
0.86865155993730658
20
14.730034889877448
30
0
10
0.89254316590851424
20
14.86360325775185
30
0
10
0.90939853864729525
20
15.006292239275375
30
0
10
0.93829838185471404
20
15.187860451154148
30
0
10
0.98844713827392439
20
15.420532179469967
30
0
10
1.0559418341836724
20
15.695832499709745
30
0
10
1.1305292418038619
20
15.994574891445572
30
0
10
1.1996826745606823
20
16.293343311284332
30
0
10
1.2533360252518855
20
16.571840513737769
30
0
10
1.2894746088430358
20
16.821329045592009
30
0
10
1.3124842234795067
20
17.043890398184725
30
0
10
1.32831955050928
20
17.247908397298115
30
0
10
1.3411872818184221
20
17.444933913058176
30
0
10
1.348486820207784
20
17.645650827694897
30
0
10
1.3411312517944847
20
17.857511721964386
30
0
10
1.3084807088368946
20
18.083291657454463
30
0
10
1.2416400527460532
20
18.319742696117686
30
0
10
1.1382580599149128
20
18.555372236792696
30
0
10
1.0018887411584121
20
18.773516889016918
30
0
10
0.83927294313582812
20
18.95790779321413
30
0
10
0.65845344981848519
20
19.096835667006463
30
0
10
0.46614839951578335
20
19.189276987107235
30
0
10
0.26684112274023114
20
19.245285144928307
30
0
10
0.064546284952888305
20
19.276739062319109
30
0
10
-0.13626768355356955
20
19.291336827128937
30
0
10
-0.32888650550184106
20
19.282946323226923
30
0
10
-0.50563747767791878
20
19.23557430354354
30
0
10
-0.66025899726115478
20
19.132544782851426
30
0
10
-0.79036520988597103
20
18.965347830035419
30
0
10
-0.8985052941494367
20
18.738503961867959
30
0
10
-0.98986933691971113
20
18.46411789107821
30
0
10
-1.0706378426282308
20
18.158532591361023
30
0
10
-1.1462184859866844
20
17.838377952200702
30
0
10
-1.2191644825417283
20
17.516278749661154
30
0
10
-1.2893996853342284
20
17.200268012962276
30
0
10
-1.3553438028788014
20
16.894731148123359
30
0
10
-1.4147587490582179
20
16.60083445516544
30
0
10
-1.4656729896600682
20
16.317188166782376
30
0
10
-1.5073637307765699
20
16.040363257048988
30
0
10
-1.5410404750179394
20
15.765605138450411
30
0
10
-1.5689456898049157
20
15.488234386328759
30
0
10
-1.59365351552728
20
15.205016310637776
30
0
10
-1.617316019544971
20
14.915432086714029
30
0
10
-1.64087399138378
20
14.623249891402955
30
0
10
-1.6634590069965527
20
14.337209305291012
30
0
10
-1.6829811819030625
20
14.067476137525842
30
0
10
-1.6964920571878026
20
13.822353052213881
30
0
10
-1.7007846102084134
20
13.605467884553144
30
0
10
-1.6925304098932976
20
13.411371826090965
30
0
10
-1.6699775890803903
20
13.226887993105565
30
0
10
-1.6371316861572298
20
13.040597300195824
30
0
10
-1.6068199905248313
20
12.84997929344156
30
0
10
-1.6054465158940907
20
12.670333813544358
30
0
10
-1.6561096264181061
20
12.527696265372672
30
0
10
-1.7610995283635698
20
12.450854561809031
30
0
10
-1.8824573188876723
20
12.463475477722387
30
0
10
-1.9737126778118184
20
12.575745133845793
30
0
10
-2.0201977192323666
20
12.774106493667617
30
0
10
-2.0315571605781031
20
13.029906920327512
30
0
10
-2.0287449688357708
20
13.310452579486672
30
0
10
-2.0326697874507986
20
13.589487848344755
30
0
10
-2.0528466238286294
20
13.857164106851574
30
0
10
-2.0907398860283091
20
14.114682561469378
30
0
10
-2.1423073008539024
20
14.369609123761443
30
0
10
-2.2007396109541819
20
14.63121820848086
30
0
10
-2.259384533396986
20
14.905149793991136
30
0
10
-2.3137109539643115
20
15.190573451336833
30
0
10
-2.3609428977430618
20
15.483085385378354
30
0
10
-2.400184351679441
20
15.776493985577165
30
0
10
-2.4323197505419856
20
16.064934449027824
30
0
10
-2.4600774842603177
20
16.345111677849566
30
0
10
-2.4878222389409435
20
16.617676951539575
30
0
10
-2.5204586376606568
20
16.884779595476392
30
0
10
-2.5623951277798489
20
17.148038925412092
30
0
10
-2.6166185401414817
20
17.406654561741973
30
0
10
-2.6834010419934398
20
17.654731802615643
30
0
10
-2.7602776888015241
20
17.881489707862745
30
0
10
-2.8444618780511859
20
18.077301996128423
30
0
10
-2.9345252888886741
20
18.237693983806036
30
0
10
-3.0327918756803602
20
18.369784482611205
30
0
10
-3.1461013608642001
20
18.49257428125814
30
0
10
-3.2826283983507247
20
18.622469863285957
30
0
10
-3.4493784692401781
20
18.760821516545928
30
0
10
-3.6495572485412775
20
18.882587020420328
30
0
10
-3.8818176613829003
20
18.951935340034034
30
0
10
-4.1393841900512198
20
18.935520123953687
30
0
10
-4.4091148481633393
20
18.817187871010731
30
0
10
-4.670906071273512
20
18.610562924990507
30
0
10
-4.902532271370891
20
18.347293732475393
30
0
10
-5.0839900961272466
20
18.066996418717324
30
0
10
-5.2023334054737038
20
17.806095455255825
30
0
10
-5.2556057915486143
20
17.588195830771681
30
0
10
-5.2589478178788509
20
17.411050614806115
30
0
10
-5.2369466091425974
20
17.25513648640564
30
0
10
-5.213846816924379
20
17.096208067834098
30
0
10
-5.2021902520478616
20
16.918890718833321
30
0
10
-5.2010007487208751
20
16.72058196481791
30
0
10
-5.2035259269339287
20
16.505246122387366
30
0
10
-5.2024369974057176
20
16.279984304962543
30
0
10
-5.1957557400961196
20
16.050611565098446
30
0
10
-5.1845872597873424
20
15.821328924707723
30
0
10
-5.1713768025937776
20
15.594026074203246
30
0
10
-5.1579689874838683
20
15.367739685404542
30
0
10
-5.1437218323384908
20
15.138028706316305
30
0
10
-5.1264851566110448
20
14.898750439272135
30
0
10
-5.1036900685237008
20
14.643956335774742
30
0
10
-5.0733003403254182
20
14.369559312009507
30
0
10
-5.0350595284653483
20
14.075554615037788
30
0
10
-4.990372605825776
20
13.76561750610816
30
0
10
-4.9415424219295359
20
13.445453891847642
30
0
10
-4.8911974644856233
20
13.121523533964297
30
0
10
-4.8416669642711643
20
12.799654852165318
30
0
10
-4.7943149683002071
20
12.483596263949551
30
0
10
-4.7490823210838524
20
12.173922002051762
30
0
10
-4.7053119305527131
20
11.869091018842974
30
0
10
-4.662397301246398
20
11.566244850205107
30
0
10
-4.6205395761855881
20
11.262100125020918
30
0
10
-4.5813664795317397
20
10.953815694917672
30
0
10
-4.5488430576333299
20
10.639833469115265
30
0
10
-4.5288730881467032
20
10.320902896591145
30
0
10
-4.5282406616936193
20
10.001155860637423
30
0
10
-4.5537502733259609
20
9.689249662147315
30
0
10
-4.6113011976715699
20
9.3992957708901095
30
0
10
-4.7049509498926918
20
9.1523253285027391
30
0
10
-4.8360905175571745
20
8.9761309658992214
30
0
10
-5.0029553250157646
20
8.8951442117357118
30
0
10
-5.2003081742020161
20
8.9228683549350443
30
0
10
-5.4185776039226425
20
9.0505400019270272
30
0
10
-5.6452295481736767
20
9.249110987343105
30
0
10
-5.8677525128704344
20
9.4808814929885283
30
0
10
-6.0763400963769962
20
9.7088193938410914
30
0
10
-6.2663342952908465
20
9.9057988247215008
30
0
10
-6.4416926140712913
20
10.066484462304002
30
0
10
-6.6129436729471545
20
10.203764180221723
30
0
10
-6.792403066410456
20
10.337548817014447
30
0
10
-6.9906406696655203
20
10.486823742503075
30
0
10
-7.2115512353997371
20
10.658465137824875
30
0
10
-7.4511381659596712
20
10.844135800186736
30
0
10
-7.7012886481026914
20
11.027872266915884
30
0
10
-7.9524596263924074
20
11.191336257106459
30
0
10
-8.1965737328576775
20
11.319540180499818
30
0
10
-8.4303731701850921
20
11.407486672070204
30
0
10
-8.6568042003312531
20
11.462800313797764
30
0
10
-8.8811138953155897
20
11.497555610186392
30
0
10
-9.1080196914923235
20
11.522314665330915
30
0
10
-9.338342553391767
20
11.539025206078549
30
0
10
-9.5661813243519145
20
11.535149777477793
30
0
10
-9.7821081651520352
20
11.492463003481886
30
0
10
-9.9759560117570327
20
11.394763789208325
30
0
10
-10.139975594677082
20
11.236687308697725
30
0
10
-10.271210903144743
20
11.030055594056273
30
0
10
-10.369227256452469
20
10.795363632861285
30
0
10
-10.434322169063821
20
10.554821146137597
30
0
10
-10.465593835477982
20
10.324920326238168
30
0
10
-10.458955016996946
20
10.108873144163685
30
0
10
-10.409335212987994
20
9.9012695452849933
30
0
10
-10.313018504775627
20
9.6931672436077214
30
0
10
-10.169979808913816
20
9.477101991438392
30
0
10
-9.986086530261062
20
9.2519061374688292
30
0
10
-9.7710429839631932
20
9.0205029566290467
30
0
10
-9.5365279723469261
20
8.7880102190796947
30
0
10
-9.29418649285169
20
8.5596359351559101
30
0
10
-9.0538506784581472
20
8.3388705302450497
30
0
10
-8.8212383913126828
20
8.1250243621226019
30
0
10
-8.5981022192661669
20
7.9138121084261481
30
0
10
-8.3835391898256386
20
7.6993684655179528
30
0
10
-8.1749469763447244
20
7.4758449965570097
30
0
10
-7.9690983732674061
20
7.2391083623645027
30
0
10
-7.7632327172975604
20
6.9885675088386998
30
0
10
-7.5559379830488229
20
6.7284299978842901
30
0
10
-7.3466954585116317
20
6.4655259262820302
30
0
10
-7.135597816934439
20
6.2075960516432396
30
0
10
-6.9229851096462305
20
5.9613127384089379
30
0
10
-6.7091495495000109
20
5.7306144170255546
30
0
10
-6.4939284829161572
20
5.5144194719821735
30
0
10
-6.2766314025416143
20
5.3062958730015879
30
0
10
-6.0565212290223736
20
5.0974123256743624
30
0
10
-5.8331638336687739
20
4.8787073027925274
30
0
10
-5.6068421519538241
20
4.6434423453753739
30
0
10
-5.378915710852139
20
4.3894289464704377
30
0
10
-5.1522754265882051
20
4.1218268515348209
30
0
10
-4.9309272612034976
20
3.8507276521219658
30
0
10
-4.7194613899532589
20
3.5880650256892248
30
0
10
-4.522559938811078
20
3.3447289713323536
30
0
10
-4.3444925712283204
20
3.1276694014044026
30
0
10
-4.188607670543548
20
2.9368257596269638
30
0
10
-4.0568518951666279
20
2.7626485413960467
30
0
10
-3.9495626883819792
20
2.590699455906706
30
0
10
-3.8652710416429481
20
2.4056190425156547
30
0
10
-3.8004375070679575
20
2.1955741751793165
30
0
10
-3.7493939304927864
20
1.9558183558113766
30
0
10
-3.7056859815539482
20
1.6865674714804137
30
0
10
-3.6633343987763207
20
1.3913884290114407
30
0
10
-3.6180045784903241
20
1.0754895937252635
30
0
10
-3.5685103610351292
20
0.7438179101896204
30
0
10
-3.5170863032102777
20
0.40010500785920566
30
0
10
-3.4680551263212482
20
0.047198318127268504
30
0
10
-3.4269089113099165
20
-0.31293354838102683
30
0
10
-3.3992025774731953
20
-0.67906428046031209
30
0
10
-3.3895734611846113
20
-1.0506268358685085
30
0
10
-3.4005969410927634
20
-1.4276138086967598
30
0
10
-3.4320502349288984
20
-1.8104653441950289
30
0
10
-3.4816578609682387
20
-2.1998672814362683
30
0
10
-3.5456111666707701
20
-2.5965633324414226
30
0
10
-3.6191729131936707
20
-3.0011639581102303
30
0
10
-3.6972529802357732
20
-3.4139514863496645
30
0
10
-3.7749792354246434
20
-3.8346988491088156
30
0
10
-3.8483117630697188
20
-4.2624536711941072
30
0
10
-3.9145134239963881
20
-4.6954244877796745
30
0
10
-3.9719595974781385
20
-5.1313298170549775
30
0
10
-4.020039822267
20
-5.5676811272325697
30
0
10
-4.0590242217752222
20
-6.0020952286486882
30
0
10
-4.0899437171907067
20
-6.4325857061076643
30
0
10
-4.1144672371985767
20
-6.8578829169554876
30
0
10
-4.1347734651320955
20
-7.2776959891252115
30
0
10
-4.1534419239930118
20
-7.6931142590739405
30
0
10
-4.173260286427988
20
-8.1064389657191693
30
0
10
-4.1969725911196978
20
-8.5206145263469626
30
0
10
-4.2270439845171381
20
-8.938776256472341
30
0
10
-4.2654206456253556
20
-9.3637534566726686
30
0
10
-4.3132871408265121
20
-9.7975838896020999
30
0
10
-4.3708356046613721
20
-10.241041330908452
30
0
10
-4.4370041673751102
20
-10.693114520002728
30
0
10
-4.509303760167632
20
-11.15063292163066
30
0
10
-4.5842877062848304
20
-11.608970211740306
30
0
10
-4.657955280290377
20
-12.062636685286973
30
0
10
-4.726183121021835
20
-12.505918910287704
30
0
10
-4.7851390676200349
20
-12.933488790742913
30
0
10
-4.8317168184061652
20
-13.341050081020461
30
0
10
-4.8639307178373219
20
-13.725912141081674
30
0
10
-4.8814029699301278
20
-14.087732979354811
30
0
10
-4.8855530860093026
20
-14.428714317301061
30
0
10
-4.8792828608340759
20
-14.75284619755648
30
0
10
-4.8667595321750223
20
-15.065363556882312
30
0
10
-4.8531926757405035
20
-15.372122630448615
30
0
10
-4.8445373571650814
20
-15.679000236321121
30
0
10
-4.8474187435183547
20
-15.991311766584852
30
0
10
-4.868181311996099
20
-16.313098370645424
30
0
10
-4.9110656118649159
20
-16.646246544983807
30
0
10
-4.9767125961789977
20
-16.989709355682791
30
0
10
-5.0603468169456516
20
-17.338566646521116
30
0
10
-5.1505305729879582
20
-17.683430824453165
30
0
10
-5.2265766506098981
20
-18.009004560015097
30
0
10
-5.2620052619920932
20
-18.29649284958931
30
0
10
-5.237386517423646
20
-18.481761560343845
30
0
10
-5.1805822288899028
20
-18.589706974341361
30
0
10
-5.1248301557097529
20
-18.647345172994868
30
0
10
-5.092533389682897
20
-18.67262242883729
30
0
0
ENDSEC
0
SECTION
2
OBJECTS
0
DICTIONARY
5
C
100
AcDbDictionary
3
ACAD_GROUP
350
D
3
ACAD_MLINESTYLE
350
17
0
DICTIONARY
5
D
100
AcDbDictionary
0
DICTIONARY
5
1A
330
C
100
AcDbDictionary
0
DICTIONARY
5
17
100
AcDbDictionary
0
ENDSEC
0
EOF
